<?xml version="1.0" encoding="UTF-8" standalone="no"?>
<!-- Created with Inkscape (http://www.inkscape.org/) -->

<svg
   xmlns:dc="http://purl.org/dc/elements/1.1/"
   xmlns:cc="http://creativecommons.org/ns#"
   xmlns:rdf="http://www.w3.org/1999/02/22-rdf-syntax-ns#"
   xmlns:svg="http://www.w3.org/2000/svg"
   xmlns="http://www.w3.org/2000/svg"
   xmlns:xlink="http://www.w3.org/1999/xlink"
   xmlns:sodipodi="http://sodipodi.sourceforge.net/DTD/sodipodi-0.dtd"
   xmlns:inkscape="http://www.inkscape.org/namespaces/inkscape"
   width="128"
   height="128"
   id="svg3870"
   version="1.1"
   inkscape:version="0.48.2 r9819"
   sodipodi:docname="icon.svg"
   inkscape:export-filename="/home/flam/PYTHON/defykub/imgs/icon.png"
   inkscape:export-xdpi="90"
   inkscape:export-ydpi="90">
  <defs
     id="defs3872">
    <radialGradient
       gradientUnits="userSpaceOnUse"
       gradientTransform="matrix(0.49465234,0.94726848,-0.90559598,0.38041554,12.927466,-3.4504719)"
       r="2.5935829"
       fy="8.9071722"
       fx="9.6194496"
       cy="8.9071722"
       cx="9.6194496"
       id="radialGradient3963"
       xlink:href="#linearGradient3957"
       inkscape:collect="always" />
    <linearGradient
       id="linearGradient3957">
      <stop
         id="stop3959"
         offset="0"
         style="stop-color:#000080;stop-opacity:0;" />
      <stop
         id="stop3961"
         offset="1"
         style="stop-color:#000080;stop-opacity:1;" />
    </linearGradient>
    <radialGradient
       gradientUnits="userSpaceOnUse"
       gradientTransform="matrix(0.49465234,0.94726848,-0.90559598,0.38041554,12.927466,-3.4504719)"
       r="2.5935829"
       fy="8.9071722"
       fx="9.6194496"
       cy="8.9071722"
       cx="9.6194496"
       id="radialGradient3963-8"
       xlink:href="#linearGradient3957-2"
       inkscape:collect="always" />
    <linearGradient
       id="linearGradient3957-2">
      <stop
         id="stop3959-4"
         offset="0"
         style="stop-color:#007a00;stop-opacity:0;" />
      <stop
         id="stop3961-7"
         offset="1"
         style="stop-color:#007a00;stop-opacity:1;" />
    </linearGradient>
  </defs>
  <sodipodi:namedview
     id="base"
     pagecolor="#ffffff"
     bordercolor="#666666"
     borderopacity="1.0"
     inkscape:pageopacity="0.0"
     inkscape:pageshadow="2"
     inkscape:zoom="3.8359375"
     inkscape:cx="64"
     inkscape:cy="64"
     inkscape:document-units="px"
     inkscape:current-layer="layer1"
     showgrid="false"
     inkscape:window-width="881"
     inkscape:window-height="675"
     inkscape:window-x="4"
     inkscape:window-y="84"
     inkscape:window-maximized="0" />
  <metadata
     id="metadata3875">
    <rdf:RDF>
      <cc:Work
         rdf:about="">
        <dc:format>image/svg+xml</dc:format>
        <dc:type
           rdf:resource="http://purl.org/dc/dcmitype/StillImage" />
        <dc:title></dc:title>
      </cc:Work>
    </rdf:RDF>
  </metadata>
  <g
     inkscape:label="Calque 1"
     inkscape:groupmode="layer"
     id="layer1"
     transform="translate(0,-924.36218)">
    <g
       transform="matrix(3.1879199,0,0,3.1879199,-63.925396,409.52365)"
       id="layer1-9"
       inkscape:label="Calque 1">
      <rect
         y="161.84473"
         x="20.26111"
         height="19.477779"
         width="19.477777"
         id="rect2985"
         style="fill:#808080;fill-opacity:1;stroke:#000000;stroke-width:0.5;stroke-miterlimit:4;stroke-dasharray:none;stroke-dashoffset:0" />
      <path
         sodipodi:nodetypes="ccccc"
         inkscape:connector-curvature="0"
         id="path2983"
         d="m 20.267379,161.82988 4.058826,3.95722 0,11.43315 -3.951872,4.02139 z"
         style="fill:#cccccc;stroke:#000000;stroke-width:0.5;stroke-linecap:butt;stroke-linejoin:round;stroke-miterlimit:4;stroke-opacity:1;stroke-dasharray:none" />
      <path
         sodipodi:nodetypes="ccccc"
         inkscape:connector-curvature="0"
         id="path2983-3"
         d="m 20.401072,181.29244 3.95722,-4.05882 11.43315,0 4.02139,3.95187 z"
         style="fill:#4d4d4d;stroke:#000000;stroke-width:0.5;stroke-linecap:butt;stroke-linejoin:round;stroke-miterlimit:4;stroke-opacity:1;stroke-dasharray:none" />
      <path
         sodipodi:nodetypes="ccccc"
         inkscape:connector-curvature="0"
         id="path2983-3-2"
         d="m 39.836897,181.16142 -4.05882,-3.95722 0,-11.43315 3.95187,-4.02139 z"
         style="fill:#4d4d4d;stroke:#000000;stroke-width:0.5;stroke-linecap:butt;stroke-linejoin:round;stroke-miterlimit:4;stroke-opacity:1;stroke-dasharray:none" />
      <path
         sodipodi:nodetypes="ccccc"
         inkscape:connector-curvature="0"
         id="path2983-3-2-8"
         d="m 39.812833,161.83255 -3.95722,4.05882 -11.43315,0 -4.02139,-3.95187 z"
         style="fill:#b3b3b3;stroke:#000000;stroke-width:0.5;stroke-linecap:butt;stroke-linejoin:round;stroke-miterlimit:4;stroke-opacity:1;stroke-dasharray:none" />
    </g>
    <g
       transform="matrix(3.2035596,0,0,3.2035596,-0.319705,470.76643)"
       id="layer1-8"
       inkscape:label="Calque 1">
      <rect
         y="161.84473"
         x="20.26111"
         height="19.477779"
         width="19.477777"
         id="rect2985-4"
         style="fill:#e3e2db;fill-opacity:1;stroke:#000000;stroke-width:0.5;stroke-miterlimit:4;stroke-dasharray:none;stroke-dashoffset:0" />
    </g>
    <g
       transform="matrix(3.2035596,0,0,3.2035596,-64.189358,470.76641)"
       id="layer1-99"
       inkscape:label="Calque 1">
      <rect
         y="161.84473"
         x="20.26111"
         height="19.477779"
         width="19.477777"
         id="rect2985-8"
         style="fill:#e3e2db;fill-opacity:1;stroke:#000000;stroke-width:0.5;stroke-miterlimit:4;stroke-dasharray:none;stroke-dashoffset:0" />
      <path
         transform="matrix(3.0845361,0,0,3.4390803,-1.917529,136.16021)"
         d="m 12.941177,10.294117 c 0,1.284727 -1.161186,2.326203 -2.593583,2.326203 -1.432396,0 -2.5935826,-1.041476 -2.5935826,-2.326203 0,-1.2847267 1.1611866,-2.3262034 2.5935826,-2.3262034 1.432397,0 2.593583,1.0414767 2.593583,2.3262034 z"
         sodipodi:ry="2.3262033"
         sodipodi:rx="2.5935829"
         sodipodi:cy="10.294117"
         sodipodi:cx="10.347594"
         id="path3872-7-5-7"
         style="fill:url(#radialGradient3963-8);fill-opacity:1;stroke:none"
         sodipodi:type="arc" />
    </g>
    <g
       transform="matrix(3.2035596,0,0,3.2035596,-0.31970504,406.89676)"
       id="layer1-5"
       inkscape:label="Calque 1">
      <rect
         y="161.84473"
         x="20.26111"
         height="19.477779"
         width="19.477777"
         id="rect2985-6"
         style="fill:#e3e2db;fill-opacity:1;stroke:#000000;stroke-width:0.5;stroke-miterlimit:4;stroke-dasharray:none;stroke-dashoffset:0" />
      <path
         transform="matrix(3.0845361,0,0,3.4390803,-1.917529,136.16021)"
         d="m 12.941177,10.294117 c 0,1.284727 -1.161186,2.326203 -2.593583,2.326203 -1.432396,0 -2.5935826,-1.041476 -2.5935826,-2.326203 0,-1.2847267 1.1611866,-2.3262034 2.5935826,-2.3262034 1.432397,0 2.593583,1.0414767 2.593583,2.3262034 z"
         sodipodi:ry="2.3262033"
         sodipodi:rx="2.5935829"
         sodipodi:cy="10.294117"
         sodipodi:cx="10.347594"
         id="path3872-7-5-7-4"
         style="fill:#000000;fill-opacity:1;stroke:none"
         sodipodi:type="arc" />
      <path
         transform="matrix(2.3134021,0,0,2.5793102,6.0618528,145.01079)"
         d="m 12.941177,10.294117 c 0,1.284727 -1.161186,2.326203 -2.593583,2.326203 -1.432396,0 -2.5935826,-1.041476 -2.5935826,-2.326203 0,-1.2847267 1.1611866,-2.3262034 2.5935826,-2.3262034 1.432397,0 2.593583,1.0414767 2.593583,2.3262034 z"
         sodipodi:ry="2.3262033"
         sodipodi:rx="2.5935829"
         sodipodi:cy="10.294117"
         sodipodi:cx="10.347594"
         id="path3872-7-5"
         style="fill:#0000ff;fill-opacity:1;stroke:none"
         sodipodi:type="arc" />
      <path
         transform="matrix(1.5422681,0,0,1.7195401,14.041235,153.86136)"
         d="m 12.941177,10.294117 c 0,1.284727 -1.161186,2.326203 -2.593583,2.326203 -1.432396,0 -2.5935826,-1.041476 -2.5935826,-2.326203 0,-1.2847267 1.1611866,-2.3262034 2.5935826,-2.3262034 1.432397,0 2.593583,1.0414767 2.593583,2.3262034 z"
         sodipodi:ry="2.3262033"
         sodipodi:rx="2.5935829"
         sodipodi:cy="10.294117"
         sodipodi:cx="10.347594"
         id="path3872-7"
         style="fill:#ff0000;fill-opacity:1;stroke:none"
         sodipodi:type="arc" />
      <path
         transform="matrix(0.77113403,0,0,0.85977006,22.020617,162.71193)"
         d="m 12.941177,10.294117 c 0,1.284727 -1.161186,2.326203 -2.593583,2.326203 -1.432396,0 -2.5935826,-1.041476 -2.5935826,-2.326203 0,-1.2847267 1.1611866,-2.3262034 2.5935826,-2.3262034 1.432397,0 2.593583,1.0414767 2.593583,2.3262034 z"
         sodipodi:ry="2.3262033"
         sodipodi:rx="2.5935829"
         sodipodi:cy="10.294117"
         sodipodi:cx="10.347594"
         id="path3872"
         style="fill:#ffff00;fill-opacity:1;stroke:none"
         sodipodi:type="arc" />
    </g>
  </g>
</svg>
