<?xml version="1.0" encoding="UTF-8" standalone="no"?>
<!-- Created with Inkscape (http://www.inkscape.org/) -->

<svg
   xmlns:dc="http://purl.org/dc/elements/1.1/"
   xmlns:cc="http://creativecommons.org/ns#"
   xmlns:rdf="http://www.w3.org/1999/02/22-rdf-syntax-ns#"
   xmlns:svg="http://www.w3.org/2000/svg"
   xmlns="http://www.w3.org/2000/svg"
   xmlns:sodipodi="http://sodipodi.sourceforge.net/DTD/sodipodi-0.dtd"
   xmlns:inkscape="http://www.inkscape.org/namespaces/inkscape"
   width="20"
   height="20"
   id="svg2"
   version="1.1"
   inkscape:version="0.48.1 r9760"
   sodipodi:docname="targ.svg">
  <defs
     id="defs4" />
  <sodipodi:namedview
     id="base"
     pagecolor="#ffffff"
     bordercolor="#666666"
     borderopacity="1.0"
     inkscape:pageopacity="0.0"
     inkscape:pageshadow="2"
     inkscape:zoom="18.699999"
     inkscape:cx="9.999999"
     inkscape:cy="10.116371"
     inkscape:document-units="px"
     inkscape:current-layer="layer1"
     showgrid="false"
     fit-margin-top="0"
     fit-margin-left="0"
     fit-margin-right="0"
     fit-margin-bottom="0"
     inkscape:window-width="997"
     inkscape:window-height="626"
     inkscape:window-x="0"
     inkscape:window-y="25"
     inkscape:window-maximized="0" />
  <metadata
     id="metadata7">
    <rdf:RDF>
      <cc:Work
         rdf:about="">
        <dc:format>image/svg+xml</dc:format>
        <dc:type
           rdf:resource="http://purl.org/dc/dcmitype/StillImage" />
        <dc:title></dc:title>
      </cc:Work>
    </rdf:RDF>
  </metadata>
  <g
     inkscape:label="Calque 1"
     inkscape:groupmode="layer"
     id="layer1"
     transform="translate(-20,-161.5625)">
    <rect
       style="fill:#e3e2db;fill-opacity:1;stroke:#000000;stroke-width:0.50000000000000000;stroke-miterlimit:4;stroke-dasharray:none;stroke-dashoffset:0"
       id="rect2985"
       width="19.477777"
       height="19.477779"
       x="20.26111"
       y="161.84473" />
    <path
       sodipodi:type="arc"
       style="fill:#000000;fill-opacity:1;stroke:none"
       id="path3872-7-5-7"
       sodipodi:cx="10.347594"
       sodipodi:cy="10.294117"
       sodipodi:rx="2.5935829"
       sodipodi:ry="2.3262033"
       d="m 12.941177,10.294117 a 2.5935829,2.3262033 0 1 1 -5.1871656,0 2.5935829,2.3262033 0 1 1 5.1871656,0 z"
       transform="matrix(3.0845361,0,0,3.4390803,-1.917529,136.16021)" />
    <path
       sodipodi:type="arc"
       style="fill:#0000ff;fill-opacity:1;stroke:none"
       id="path3872-7-5"
       sodipodi:cx="10.347594"
       sodipodi:cy="10.294117"
       sodipodi:rx="2.5935829"
       sodipodi:ry="2.3262033"
       d="m 12.941177,10.294117 a 2.5935829,2.3262033 0 1 1 -5.1871656,0 2.5935829,2.3262033 0 1 1 5.1871656,0 z"
       transform="matrix(2.3134021,0,0,2.5793102,6.0618528,145.01079)" />
    <path
       sodipodi:type="arc"
       style="fill:#ff0000;fill-opacity:1;stroke:none"
       id="path3872-7"
       sodipodi:cx="10.347594"
       sodipodi:cy="10.294117"
       sodipodi:rx="2.5935829"
       sodipodi:ry="2.3262033"
       d="m 12.941177,10.294117 a 2.5935829,2.3262033 0 1 1 -5.1871656,0 2.5935829,2.3262033 0 1 1 5.1871656,0 z"
       transform="matrix(1.5422681,0,0,1.7195401,14.041235,153.86136)" />
    <path
       sodipodi:type="arc"
       style="fill:#ffff00;fill-opacity:1;stroke:none"
       id="path3872"
       sodipodi:cx="10.347594"
       sodipodi:cy="10.294117"
       sodipodi:rx="2.5935829"
       sodipodi:ry="2.3262033"
       d="m 12.941177,10.294117 a 2.5935829,2.3262033 0 1 1 -5.1871656,0 2.5935829,2.3262033 0 1 1 5.1871656,0 z"
       transform="matrix(0.77113403,0,0,0.85977006,22.020617,162.71193)" />
  </g>
</svg>
